<?xml version="1.0" encoding="UTF-8"?>
<svg width="752pt" height="752pt" version="1.1" viewBox="0 0 752 752" xmlns="http://www.w3.org/2000/svg">
 <path d="m208.27 237.88c0-5.4492 4.418-9.8672 9.8672-9.8672h315.72c5.4492 0 9.8633 4.418 9.8633 9.8672s-4.4141 9.8633-9.8633 9.8633h-315.72c-5.4492 0-9.8672-4.4141-9.8672-9.8633zm9.8672 147.99h315.72c5.4492 0 9.8633-4.418 9.8633-9.8672s-4.4141-9.8633-9.8633-9.8633h-315.72c-5.4492 0-9.8672 4.4141-9.8672 9.8633s4.418 9.8672 9.8672 9.8672zm0 138.13h315.72c5.4492 0 9.8633-4.418 9.8633-9.8672 0-5.4492-4.4141-9.8672-9.8633-9.8672h-315.72c-5.4492 0-9.8672 4.418-9.8672 9.8672 0 5.4492 4.418 9.8672 9.8672 9.8672z" fill="#fff"/>
</svg>
